<?xml version="1.0" encoding="UTF-8"?>
<svg version="1.1" xmlns="http://www.w3.org/2000/svg" width="16" height="16">
<path d="M0 0 C2.56359588 1.03929563 3.84562519 1.57420169 5.3125 3.9375 C5.2401293 7.4112938 4.95791231 9.24598681 2.5625 11.8125 C-0.07254853 13.13002426 -1.77806505 12.9375 -4.6875 12.9375 C-6.97234306 14.33707197 -6.97234306 14.33707197 -8.6875 15.9375 C-9.3475 14.9475 -10.0075 13.9575 -10.6875 12.9375 C-9.6975 11.9475 -8.7075 10.9575 -7.6875 9.9375 C-8.3475 9.2775 -9.0075 8.6175 -9.6875 7.9375 C-9.6875 6.0625 -9.6875 6.0625 -8.6875 3.9375 C-3.89728593 -0.09063456 -3.89728593 -0.09063456 0 0 Z " fill="#B60000" transform="translate(10.6875,0.0625)"/>
<path d="M0 0 C0.66 0.33 1.32 0.66 2 1 C1.67 1.66 1.34 2.32 1 3 C1.0825 4.27875 1.165 5.5575 1.25 6.875 C1.296875 9.0234375 1.296875 9.0234375 1 11 C-1.5 13.5 -1.5 13.5 -4 15 C-4.66 14.01 -5.32 13.02 -6 12 C-5.01 11.01 -4.02 10.02 -3 9 C-3.66 8.34 -4.32 7.68 -5 7 C-4.875 5.0625 -4.875 5.0625 -4 3 C-1.9375 1.25 -1.9375 1.25 0 0 Z " fill="#533939" transform="translate(6,1)"/>
<path d="M0 0 C2.64168921 0.35698503 4.60890736 0.752308 6.875 2.1875 C8 4 8 4 7.9375 7 C7 10 7 10 5.1875 11.875 C3 13 3 13 -1 13 C-1 12.34 -1 11.68 -1 11 C-0.195625 10.7525 0.60875 10.505 1.4375 10.25 C4.10150656 9.27184151 4.10150656 9.27184151 4.9375 7.125 C5.01538495 4.47691164 4.49905431 3.17362874 3 1 C2.01 0.67 1.02 0.34 0 0 Z " fill="#410000" transform="translate(8,0)"/>
<path d="M0 0 C0.99 0.33 1.98 0.66 3 1 C2.34 2.32 1.68 3.64 1 5 C0.01 5 -0.98 5 -2 5 C-2 2 -2 2 0 0 Z " fill="#412F37" transform="translate(3,10)"/>
</svg>
